<svg width="37" height="36" viewBox="0 0 37 36" fill="none" xmlns="http://www.w3.org/2000/svg">
<path d="M16.665 27.2542C16.3737 27.2542 16.1376 27.4903 16.1376 27.7816V31.8201C16.1376 32.1114 16.3737 32.3474 16.665 32.3474C16.9563 32.3474 17.1923 32.1114 17.1923 31.8201V27.7816C17.1923 27.4903 16.9563 27.2542 16.665 27.2542Z" fill="#45D987"/>
<path d="M12.3969 27.2542C12.1056 27.2542 11.8695 27.4903 11.8695 27.7816V31.8201C11.8695 32.1114 12.1056 32.3474 12.3969 32.3474C12.6882 32.3474 12.9242 32.1114 12.9242 31.8201V27.7816C12.9242 27.4903 12.6882 27.2542 12.3969 27.2542Z" fill="#45D987"/>
<path d="M14.531 27.5079C14.2397 27.5079 14.0037 27.744 14.0037 28.0353V34.3747C14.0037 34.666 14.2397 34.902 14.531 34.902C14.8223 34.902 15.0583 34.666 15.0583 34.3747V28.0353C15.0583 27.744 14.8222 27.5079 14.531 27.5079Z" fill="#45D987"/>
<path d="M28.4103 12.9499H32.4488C32.7401 12.9499 32.9761 12.7138 32.9761 12.4225C32.9761 12.1312 32.7401 11.8952 32.4488 11.8952H28.4103C28.119 11.8952 27.883 12.1312 27.883 12.4225C27.883 12.7138 28.119 12.9499 28.4103 12.9499Z" fill="#45D987"/>
<path d="M32.4487 16.1633H28.4103C28.119 16.1633 27.8829 16.3993 27.8829 16.6906C27.8829 16.9819 28.119 17.218 28.4103 17.218H32.4487C32.74 17.218 32.9761 16.9819 32.9761 16.6906C32.9761 16.3993 32.74 16.1633 32.4487 16.1633Z" fill="#45D987"/>
<path d="M35.0381 14.0292H28.572C28.2807 14.0292 28.0446 14.2652 28.0446 14.5565C28.0446 14.8478 28.2807 15.0839 28.572 15.0839H35.0381C35.3294 15.0839 35.5654 14.8478 35.5654 14.5565C35.5654 14.2652 35.3294 14.0292 35.0381 14.0292Z" fill="#45D987"/>
<path d="M33.2996 35.8727L26.0265 28.5996C25.8567 28.4299 25.8567 28.1547 26.0265 27.985L28.485 25.5265C28.6547 25.3567 28.9299 25.3567 29.0996 25.5265L36.3727 32.7996C36.5425 32.9693 36.5425 33.2445 36.3727 33.4142L33.9142 35.8727C33.7445 36.0424 33.4693 36.0424 33.2996 35.8727Z" fill="#F78E36"/>
<path d="M28.485 25.5265L26.9485 27.063C27.1182 26.8933 27.3934 26.8933 27.5631 27.063L34.8362 34.3361C35.0059 34.5059 35.0059 34.7811 34.8362 34.9507L36.3727 33.4142C36.5425 33.2445 36.5425 32.9693 36.3727 32.7996L29.0996 25.5265C28.9299 25.3567 28.6547 25.3567 28.485 25.5265Z" fill="#F86F1B"/>
<path d="M23.1333 24.175L24.6696 22.6387L28.0183 25.9874L26.482 27.5237L23.1333 24.175Z" fill="#4380A0"/>
<path d="M27.3779 29.9568L30.4506 26.8841L31.9869 28.4204L28.9142 31.4931L27.3779 29.9568Z" fill="#7BE492"/>
<path d="M28.9143 28.4205L30.4506 26.8842L31.987 28.4205L30.4506 29.9568L28.9143 28.4205Z" fill="#45D987"/>
<path d="M14.6247 28.2495C22.4256 28.2495 28.7495 21.9256 28.7495 14.1247C28.7495 6.32385 22.4256 0 14.6247 0C6.82385 0 0.5 6.32385 0.5 14.1247C0.5 21.9256 6.82385 28.2495 14.6247 28.2495Z" fill="#43809F"/>
<path d="M14.6247 0C14.2592 0 13.8968 0.0139219 13.5382 0.0412031C20.8314 0.596039 26.5764 6.68946 26.5764 14.1248C26.5764 21.5601 20.8314 27.6536 13.5382 28.2084C13.8968 28.2357 14.2591 28.2496 14.6247 28.2496C22.4256 28.2496 28.7494 21.9258 28.7494 14.1249C28.7494 6.32398 22.4256 0 14.6247 0Z" fill="#3A7190"/>
<path d="M14.6247 26.0764C21.2255 26.0764 26.5764 20.7255 26.5764 14.1247C26.5764 7.52397 21.2255 2.17301 14.6247 2.17301C8.02397 2.17301 2.673 7.52397 2.673 14.1247C2.673 20.7255 8.02397 26.0764 14.6247 26.0764Z" fill="#F3F3F3"/>
<path d="M14.6247 2.17301C14.2584 2.17301 13.8962 2.19052 13.5382 2.22293C19.6211 2.77376 24.4034 7.9008 24.4034 14.1247C24.4034 20.3486 19.6211 25.4757 13.5382 26.0265C13.8962 26.0589 14.2584 26.0764 14.6247 26.0764C21.2149 26.0764 26.5764 20.7149 26.5764 14.1247C26.5764 7.53455 21.215 2.17301 14.6247 2.17301Z" fill="#E4E4E4"/>
<path d="M12.6328 14.3783H8.28669V8.00402C8.28669 7.84399 8.41642 7.71426 8.57645 7.71426H12.343C12.503 7.71426 12.6328 7.84399 12.6328 8.00402V14.3783Z" fill="#29CEF6"/>
<path d="M10.4598 7.71426V14.3783H12.6328V8.00402C12.6328 7.84399 12.5031 7.71426 12.343 7.71426H10.4598Z" fill="#22B5ED"/>
<path d="M21.3249 14.3783H16.9789V10.7565C16.9789 10.5965 17.1086 10.4668 17.2686 10.4668H21.0352C21.1952 10.4668 21.3249 10.5965 21.3249 10.7565V14.3783Z" fill="#7BE492"/>
<path d="M19.1519 10.4668V14.3783H21.3249V10.7565C21.3249 10.5965 21.1952 10.4668 21.0352 10.4668H19.1519Z" fill="#45D987"/>
<path d="M16.9789 14.3783H12.6328V5.2515C12.6328 5.09147 12.7625 4.96174 12.9225 4.96174H16.6891C16.8491 4.96174 16.9789 5.09147 16.9789 5.2515V14.3783Z" fill="#F78E36"/>
<path d="M14.8059 4.96174V14.3783H16.9789V5.2515C16.9789 5.09147 16.8491 4.96174 16.6891 4.96174H14.8059Z" fill="#F86F1B"/>
<path d="M22.5953 13.8509H7.01635C6.72505 13.8509 6.48901 14.087 6.48901 14.3783C6.48901 14.6696 6.72505 14.9056 7.01635 14.9056H22.5953C22.8867 14.9056 23.1227 14.6696 23.1227 14.3783C23.1227 14.087 22.8867 13.8509 22.5953 13.8509Z" fill="#43809F"/>
<path d="M20.8903 19.5409H18.3219L17.1561 16.5607C17.0764 16.357 16.8778 16.2237 16.6603 16.2255C16.4415 16.2274 16.2466 16.3643 16.1705 16.5695L14.5675 20.8922L13.4432 17.7055C13.3743 17.5101 13.1972 17.3731 12.9907 17.3555C12.7838 17.3373 12.5865 17.4428 12.4854 17.6238L11.4151 19.5408H8.85495C8.56365 19.5408 8.32761 19.7769 8.32761 20.0682C8.32761 20.3595 8.56365 20.5955 8.85495 20.5955H11.7246C11.9157 20.5955 12.0919 20.4921 12.1851 20.3252L12.837 19.1576L14.0577 22.6176C14.1316 22.8271 14.3287 22.9677 14.5508 22.9695H14.5551C14.7754 22.9695 14.9728 22.8324 15.0495 22.6255L16.6781 18.2339L17.4707 20.2603C17.5498 20.4624 17.7446 20.5955 17.9618 20.5955H20.8901C21.1814 20.5955 21.4175 20.3595 21.4175 20.0682C21.4175 19.7769 21.1816 19.5409 20.8903 19.5409Z" fill="#29CEF6"/>
</svg>
