<svg width="37" height="36" viewBox="0 0 37 36" fill="none" xmlns="http://www.w3.org/2000/svg">
<path d="M35.8786 19.9093C35.7956 19.5999 35.627 19.3202 35.3921 19.1024C35.1571 18.8846 34.8655 18.7375 34.5507 18.6781C34.2358 18.6187 33.9107 18.6494 33.6125 18.7666C33.3144 18.8839 33.0554 19.0829 32.8653 19.3408C32.8407 19.2451 32.7913 19.1576 32.722 19.0872L32.7106 19.0756V11.3906C32.8916 11.2923 33.0429 11.1471 33.1485 10.9702C33.254 10.7933 33.31 10.5912 33.3105 10.3852V2.28972C33.3096 1.98655 33.1888 1.69603 32.9744 1.48165C32.7601 1.26727 32.4695 1.14645 32.1664 1.1456H20.1344C19.8312 1.14645 19.5407 1.26727 19.3263 1.48164C19.1119 1.69602 18.9911 1.98654 18.9902 2.28972V4.27669H4.34131C3.83987 4.2773 3.35914 4.47677 3.00456 4.83134C2.64999 5.18592 2.45052 5.66665 2.4499 6.16809V24.9697C1.91384 25.6173 1.51901 26.3699 1.29069 27.179C1.06238 27.9882 1.00563 28.8361 1.12407 29.6685C1.24252 30.5009 1.53355 31.2993 1.97851 32.0127C2.42348 32.726 3.01256 33.3386 3.70802 33.811C4.40347 34.2835 5.18996 34.6054 6.01707 34.7562C6.84419 34.907 7.69369 34.8834 8.51114 34.6868C9.32859 34.4903 10.096 34.1251 10.7641 33.6147C11.4322 33.1043 11.9863 32.46 12.3909 31.723H17.5175V33.5967C17.5179 33.9302 17.6505 34.2498 17.8863 34.4856C18.1221 34.7214 18.4418 34.854 18.7752 34.8544H31.6263C31.9597 34.854 32.2794 34.7214 32.5152 34.4856C32.751 34.2498 32.8836 33.9302 32.884 33.5967V26.093L35.7078 21.2013C35.8205 21.008 35.8937 20.7943 35.923 20.5725C35.9524 20.3507 35.9373 20.1252 35.8786 19.9093Z" fill="#EAFAFF"/>
<path d="M30.8475 29.6206C30.8143 29.6781 30.7712 29.7293 30.7201 29.7717L28.1908 31.8741C28.1025 31.9476 27.9937 31.9922 27.8792 32.002C27.7647 32.0118 27.6499 31.9862 27.5504 31.9287C27.4508 31.8712 27.3713 31.7846 27.3225 31.6806C27.2738 31.5765 27.258 31.46 27.2775 31.3467L27.8336 28.104C27.8449 28.0385 27.8676 27.9755 27.9008 27.918L32.7619 19.4977C32.7935 19.4435 32.828 19.391 32.8653 19.3407C32.8407 19.245 32.7913 19.1575 32.722 19.087L29.1565 15.4716C29.1042 15.4186 29.0419 15.3765 28.9732 15.3477C28.9045 15.319 28.8308 15.3042 28.7563 15.3042H18.7751C18.4416 15.3046 18.1219 15.4372 17.8862 15.673C17.6504 15.9088 17.5178 16.2285 17.5174 16.5619V33.5967C17.5178 33.9302 17.6504 34.2498 17.8862 34.4856C18.122 34.7214 18.4416 34.854 18.7751 34.8544H31.6263C31.9597 34.854 32.2794 34.7214 32.5152 34.4856C32.751 34.2498 32.8836 33.9302 32.884 33.5967V26.093L30.8475 29.6206Z" fill="#E1EFFF"/>
<path d="M18.2205 33.5967V16.562C18.2209 16.2286 18.3535 15.9089 18.5893 15.6731C18.8251 15.4373 19.1447 15.3047 19.4782 15.3043H18.7751C18.4416 15.3047 18.1219 15.4373 17.8862 15.6731C17.6504 15.9089 17.5178 16.2286 17.5174 16.562V33.5967C17.5178 33.9302 17.6504 34.2498 17.8862 34.4856C18.122 34.7214 18.4416 34.854 18.7751 34.8544H19.4782C19.1447 34.854 18.8251 34.7214 18.5893 34.4856C18.3535 34.2498 18.2209 33.9302 18.2205 33.5967Z" fill="#D7E8F9"/>
<path d="M20.1344 1.1456H32.1664C32.4695 1.14645 32.7601 1.26727 32.9744 1.48165C33.1888 1.69603 33.3096 1.98655 33.3105 2.28972V10.3852C33.3097 10.6883 33.1888 10.9789 32.9745 11.1933C32.7601 11.4077 32.4696 11.5285 32.1664 11.5293H23.9691L21.2743 14.2242V11.5295H20.1344C19.8312 11.5287 19.5406 11.4078 19.3262 11.1934C19.1118 10.979 18.991 10.6884 18.9902 10.3852V2.28972C18.9911 1.98653 19.1119 1.69601 19.3263 1.48162C19.5407 1.26724 19.8312 1.14643 20.1344 1.1456Z" fill="#F7D119"/>
<path d="M22.2586 11.5295H21.2742V14.2244L22.2586 13.24V11.5295Z" fill="#EFC411"/>
<path d="M19.9746 10.3852V2.28972C19.9755 1.98654 20.0963 1.69602 20.3107 1.48164C20.5251 1.26727 20.8156 1.14645 21.1188 1.1456H20.1344C19.8312 1.14645 19.5407 1.26727 19.3263 1.48164C19.1119 1.69602 18.9911 1.98654 18.9902 2.28972V10.3852C18.9911 10.6884 19.1119 10.9789 19.3263 11.1933C19.5407 11.4077 19.8312 11.5285 20.1344 11.5293H21.1188C20.8156 11.5285 20.5251 11.4077 20.3107 11.1933C20.0963 10.9789 19.9754 10.6884 19.9746 10.3852Z" fill="#EFC411"/>
<path d="M29.3064 2.69711C29.2326 2.69711 29.1595 2.71165 29.0913 2.73991C29.0231 2.76816 28.9611 2.80957 28.9089 2.86177C28.8567 2.91397 28.8153 2.97594 28.7871 3.04414C28.7588 3.11234 28.7443 3.18544 28.7443 3.25926V3.54628C28.0069 3.93707 27.1953 4.12818 26.273 4.12818H23.5203C22.9203 4.12818 22.4321 4.5895 22.4321 5.15664V6.83078C22.4321 7.39793 22.9203 7.85925 23.5203 7.85925H24.1194L24.4542 9.52643C24.4797 9.65376 24.5486 9.76833 24.649 9.85064C24.7495 9.93295 24.8754 9.97792 25.0052 9.9779H25.611C25.6848 9.97796 25.758 9.96346 25.8262 9.93524C25.8945 9.90701 25.9565 9.86562 26.0087 9.81342C26.0609 9.76122 26.1024 9.69924 26.1307 9.63102C26.1589 9.5628 26.1735 9.48967 26.1735 9.41582V7.85925H26.2731C27.1953 7.85925 28.007 8.05036 28.7445 8.44122V8.7262C28.7445 8.87527 28.8037 9.01824 28.9091 9.12365C29.0145 9.22906 29.1575 9.28828 29.3065 9.28828C29.4556 9.28828 29.5986 9.22906 29.704 9.12365C29.8094 9.01824 29.8686 8.87527 29.8686 8.7262V3.25926C29.8686 3.18543 29.8541 3.11232 29.8258 3.04411C29.7976 2.9759 29.7562 2.91392 29.704 2.86172C29.6517 2.80951 29.5898 2.76811 29.5216 2.73987C29.4533 2.71162 29.3802 2.69709 29.3064 2.69711Z" fill="#72D1FB"/>
<path d="M7.10163 22.7783C5.90733 22.7781 4.73979 23.1321 3.74668 23.7955C2.75357 24.4589 1.9795 25.4019 1.52237 26.5053C1.06524 27.6086 0.945586 28.8228 1.17854 29.9941C1.4115 31.1655 1.9866 32.2415 2.8311 33.086C3.67561 33.9305 4.75159 34.5056 5.92296 34.7385C7.09433 34.9714 8.30847 34.8518 9.41183 34.3946C10.5152 33.9375 11.4582 33.1634 12.1216 32.1703C12.785 31.1772 13.1389 30.0096 13.1387 28.8153C13.1367 27.2148 12.5 25.6805 11.3682 24.5488C10.2365 23.417 8.70213 22.7803 7.10163 22.7783Z" fill="#FF6969"/>
<path d="M1.83594 28.8153C1.83811 27.2816 2.42322 25.806 3.47273 24.6876C4.52224 23.5692 5.95766 22.8916 7.48815 22.792C7.36018 22.7838 7.23158 22.7783 7.10143 22.7783C6.30677 22.7756 5.51939 22.9298 4.78444 23.232C4.04948 23.5342 3.38142 23.9785 2.81855 24.5395C2.25567 25.1004 1.80907 25.767 1.50434 26.5009C1.1996 27.2348 1.04274 28.0217 1.04274 28.8163C1.04274 29.611 1.1996 30.3979 1.50434 31.1318C1.80907 31.8657 2.25567 32.5322 2.81855 33.0932C3.38142 33.6541 4.04948 34.0985 4.78444 34.4007C5.51939 34.7029 6.30677 34.8571 7.10143 34.8544C7.23151 34.8544 7.36011 34.8488 7.48815 34.8407C5.95741 34.7408 4.52188 34.0628 3.47238 32.944C2.42288 31.8252 1.83789 30.3493 1.83594 28.8153Z" fill="#F75E5E"/>
<path d="M18.9902 4.27669H4.34131C3.83987 4.2773 3.35914 4.47677 3.00456 4.83135C2.64999 5.18592 2.45052 5.66665 2.44991 6.16809V10.0905H11.5661C11.6589 10.0905 11.7502 10.0675 11.832 10.0236C11.9137 9.97972 11.9833 9.91629 12.0346 9.83897L12.8904 8.54789H18.9902V4.27669Z" fill="#C4DAEC"/>
<path d="M18.9922 2.24606C18.9916 2.26069 18.9899 2.27503 18.9899 2.28973C18.9902 2.27503 18.9922 2.26069 18.9922 2.24606Z" fill="#C4DAEC"/>
<path fill-rule="evenodd" clip-rule="evenodd" d="M5.85001 7.74668C5.96129 7.74649 6.07002 7.71333 6.16246 7.65138C6.25491 7.58944 6.32692 7.50149 6.36942 7.39864C6.41191 7.2958 6.42298 7.18266 6.40122 7.07353C6.37946 6.9644 6.32586 6.86416 6.24717 6.78548C6.16849 6.70679 6.06825 6.65318 5.95912 6.63143C5.84998 6.60967 5.73685 6.62074 5.63401 6.66323C5.53116 6.70573 5.44321 6.77774 5.38127 6.87019C5.31932 6.96263 5.28616 7.07136 5.28596 7.18264C5.28606 7.3322 5.34551 7.47562 5.45127 7.58138C5.55703 7.68713 5.70045 7.74659 5.85001 7.74668Z" fill="#83A7C5"/>
<path fill-rule="evenodd" clip-rule="evenodd" d="M7.71153 7.74668C7.82289 7.74689 7.93182 7.71407 8.02453 7.65237C8.11725 7.59067 8.18958 7.50286 8.23239 7.40005C8.27519 7.29724 8.28655 7.18405 8.26503 7.07478C8.2435 6.96552 8.19005 6.86509 8.11145 6.7862C8.03284 6.70731 7.93261 6.6535 7.82342 6.63158C7.71424 6.60965 7.601 6.6206 7.49803 6.66304C7.39507 6.70547 7.307 6.77749 7.24497 6.86998C7.18293 6.96246 7.14972 7.07127 7.14952 7.18264C7.14961 7.33185 7.20879 7.47496 7.31411 7.58066C7.41943 7.68636 7.56232 7.74605 7.71153 7.74668Z" fill="#83A7C5"/>
<path fill-rule="evenodd" clip-rule="evenodd" d="M9.57306 7.74668C9.68442 7.74689 9.79335 7.71407 9.88606 7.65237C9.97877 7.59067 10.0511 7.50286 10.0939 7.40005C10.1367 7.29724 10.1481 7.18405 10.1266 7.07478C10.105 6.96552 10.0516 6.86509 9.97298 6.7862C9.89437 6.70731 9.79414 6.6535 9.68495 6.63158C9.57576 6.60965 9.46253 6.6206 9.35956 6.66304C9.2566 6.70547 9.16853 6.77749 9.10649 6.86998C9.04446 6.96246 9.01124 7.07127 9.01105 7.18264C9.01081 7.33195 9.06987 7.47525 9.17526 7.58103C9.28066 7.6868 9.42374 7.74639 9.57306 7.74668Z" fill="#83A7C5"/>
<path d="M10.0047 28.3193L5.61171 25.9794C5.52607 25.9338 5.43008 25.9111 5.33308 25.9136C5.23608 25.9161 5.14137 25.9437 5.05818 25.9936C4.97498 26.0435 4.90614 26.1142 4.85834 26.1986C4.81053 26.2831 4.78541 26.3784 4.7854 26.4755V31.1555C4.78542 31.2525 4.81055 31.3479 4.85836 31.4323C4.90617 31.5167 4.97503 31.5873 5.05823 31.6372C5.14143 31.6872 5.23613 31.7147 5.33313 31.7171C5.43012 31.7196 5.5261 31.6969 5.61171 31.6512L10.0044 29.3115C10.0944 29.2635 10.1696 29.1921 10.2221 29.1047C10.2745 29.0173 10.3022 28.9173 10.3022 28.8154C10.3022 28.7134 10.2745 28.6134 10.2221 28.5261C10.1696 28.4387 10.0944 28.3672 10.0044 28.3193H10.0047Z" fill="white"/>
<path d="M15.0321 11.944H5.98951C5.67908 11.944 5.42743 12.1956 5.42743 12.5061V20.4724C5.42743 20.7828 5.67908 21.0345 5.98951 21.0345H15.0321C15.3425 21.0345 15.5942 20.7828 15.5942 20.4724V12.5061C15.5942 12.1956 15.3425 11.944 15.0321 11.944Z" fill="#9DD46F"/>
<path d="M6.19967 20.4724V12.506C6.19978 12.3569 6.2591 12.2139 6.36457 12.1085C6.47005 12.0031 6.61306 11.9439 6.76217 11.9439H5.98951C5.84043 11.9439 5.69747 12.0031 5.59206 12.1085C5.48665 12.2139 5.42743 12.3569 5.42743 12.506V20.4724C5.42743 20.6215 5.48665 20.7644 5.59206 20.8698C5.69747 20.9753 5.84043 21.0345 5.98951 21.0345H6.76182C6.61277 21.0344 6.46985 20.9751 6.36445 20.8697C6.25905 20.7644 6.19978 20.6214 6.19967 20.4724Z" fill="#94C961"/>
<path d="M9.4375 13.5464C9.14735 13.5464 8.86371 13.6324 8.62245 13.7936C8.38119 13.9548 8.19315 14.1839 8.08211 14.452C7.97107 14.72 7.94201 15.015 7.99861 15.2996C8.05522 15.5842 8.19494 15.8456 8.4001 16.0507C8.60527 16.2559 8.86667 16.3956 9.15125 16.4522C9.43583 16.5088 9.7308 16.4798 9.99886 16.3687C10.2669 16.2577 10.496 16.0696 10.6572 15.8284C10.8184 15.5871 10.9044 15.3035 10.9044 15.0133C10.904 14.6244 10.7493 14.2516 10.4743 13.9765C10.1993 13.7015 9.82642 13.5468 9.4375 13.5464Z" fill="white"/>
<path d="M35.8786 19.9093C35.7914 19.5844 35.6099 19.2927 35.357 19.0709C35.1041 18.8491 34.7911 18.7072 34.4576 18.6632C34.1242 18.6192 33.7851 18.6749 33.4833 18.8235C33.1815 18.972 32.9304 19.2067 32.7619 19.4978L27.9008 27.9185C27.8676 27.976 27.8448 28.039 27.8336 28.1045L27.2775 31.3472C27.258 31.4605 27.2737 31.577 27.3225 31.6811C27.3713 31.7851 27.4508 31.8717 27.5503 31.9292C27.6498 31.9867 27.7646 32.0122 27.8791 32.0025C27.9936 31.9927 28.1024 31.948 28.1907 31.8745L30.72 29.7722C30.7711 29.7297 30.8142 29.6785 30.8474 29.621L35.7077 21.2016C35.8205 21.0083 35.8937 20.7945 35.9231 20.5726C35.9524 20.3508 35.9373 20.1253 35.8786 19.9093Z" fill="#FFE958"/>
<path d="M29.8713 19.4818H32.7722C32.8011 19.433 32.8321 19.386 32.8653 19.3408C32.8407 19.2451 32.7913 19.1576 32.722 19.0872L29.1565 15.4717C29.1042 15.4187 29.0419 15.3766 28.9732 15.3479C28.9045 15.3191 28.8308 15.3043 28.7563 15.3043V18.3669C28.7563 18.6626 28.8738 18.9462 29.0829 19.1553C29.292 19.3644 29.5756 19.4818 29.8713 19.4818Z" fill="#CADEEF"/>
<path d="M22.1773 29.7262H20.499C20.3499 29.7262 20.2069 29.667 20.1015 29.5616C19.9961 29.4562 19.9369 29.3132 19.9369 29.1641C19.9369 29.0151 19.9961 28.8721 20.1015 28.7667C20.2069 28.6613 20.3499 28.6021 20.499 28.6021H22.1773C22.3264 28.6021 22.4694 28.6613 22.5748 28.7667C22.6802 28.8721 22.7394 29.0151 22.7394 29.1641C22.7394 29.3132 22.6802 29.4562 22.5748 29.5616C22.4694 29.667 22.3264 29.7262 22.1773 29.7262Z" fill="#83A7C5"/>
<path d="M26.2491 32.0043H20.499C20.3499 32.0043 20.2069 31.9451 20.1015 31.8397C19.9961 31.7343 19.9369 31.5913 19.9369 31.4423C19.9369 31.2932 19.9961 31.1502 20.1015 31.0448C20.2069 30.9394 20.3499 30.8802 20.499 30.8802H26.2491C26.3981 30.8802 26.5411 30.9394 26.6465 31.0448C26.7519 31.1502 26.8111 31.2932 26.8111 31.4423C26.8111 31.5913 26.7519 31.7343 26.6465 31.8397C26.5411 31.9451 26.3981 32.0043 26.2491 32.0043Z" fill="#83A7C5"/>
<path d="M26.2491 29.7262H24.1025C23.9534 29.7262 23.8105 29.667 23.705 29.5616C23.5996 29.4562 23.5404 29.3132 23.5404 29.1641C23.5404 29.0151 23.5996 28.8721 23.705 28.7667C23.8105 28.6613 23.9534 28.6021 24.1025 28.6021H26.2491C26.3981 28.6021 26.5411 28.6613 26.6465 28.7667C26.7519 28.8721 26.8111 29.0151 26.8111 29.1641C26.8111 29.3132 26.7519 29.4562 26.6465 29.5616C26.5411 29.667 26.3981 29.7262 26.2491 29.7262Z" fill="#83A7C5"/>
<path d="M22.1773 25.1741H20.499C20.3499 25.1741 20.2069 25.1148 20.1015 25.0094C19.9961 24.904 19.9369 24.761 19.9369 24.612C19.9369 24.4629 19.9961 24.3199 20.1015 24.2145C20.2069 24.1091 20.3499 24.0499 20.499 24.0499H22.1773C22.3264 24.0499 22.4694 24.1091 22.5748 24.2145C22.6802 24.3199 22.7394 24.4629 22.7394 24.612C22.7394 24.761 22.6802 24.904 22.5748 25.0094C22.4694 25.1148 22.3264 25.1741 22.1773 25.1741Z" fill="#83A7C5"/>
<path d="M26.2491 27.45H20.499C20.3499 27.45 20.2069 27.3908 20.1015 27.2854C19.9961 27.18 19.9369 27.037 19.9369 26.8879C19.9369 26.7388 19.9961 26.5959 20.1015 26.4905C20.2069 26.3851 20.3499 26.3258 20.499 26.3258H26.2491C26.3981 26.3258 26.5411 26.3851 26.6465 26.4905C26.7519 26.5959 26.8111 26.7388 26.8111 26.8879C26.8111 27.037 26.7519 27.18 26.6465 27.2854C26.5411 27.3908 26.3981 27.45 26.2491 27.45Z" fill="#83A7C5"/>
<path d="M28.294 25.1741H24.1025C23.9534 25.1741 23.8105 25.1148 23.705 25.0094C23.5996 24.904 23.5404 24.761 23.5404 24.612C23.5404 24.4629 23.5996 24.3199 23.705 24.2145C23.8105 24.1091 23.9534 24.0499 24.1025 24.0499H28.294C28.443 24.0499 28.586 24.1091 28.6914 24.2145C28.7968 24.3199 28.856 24.4629 28.856 24.612C28.856 24.761 28.7968 24.904 28.6914 25.0094C28.586 25.1148 28.443 25.1741 28.294 25.1741Z" fill="#83A7C5"/>
<path d="M29.2845 22.896H20.499C20.3499 22.896 20.2069 22.8368 20.1015 22.7314C19.9961 22.626 19.9369 22.483 19.9369 22.3339C19.9369 22.1848 19.9961 22.0419 20.1015 21.9365C20.2069 21.8311 20.3499 21.7718 20.499 21.7718H29.2845C29.4335 21.7718 29.5765 21.8311 29.6819 21.9365C29.7873 22.0419 29.8465 22.1848 29.8465 22.3339C29.8465 22.483 29.7873 22.626 29.6819 22.7314C29.5765 22.8368 29.4335 22.896 29.2845 22.896Z" fill="#83A7C5"/>
<path d="M22.6455 20.6199H20.499C20.351 20.6183 20.2096 20.5583 20.1055 20.4531C20.0015 20.3478 19.9431 20.2058 19.9431 20.0578C19.9431 19.9098 20.0015 19.7678 20.1055 19.6625C20.2096 19.5573 20.351 19.4973 20.499 19.4957H22.6455C22.7935 19.4973 22.9349 19.5573 23.039 19.6625C23.143 19.7678 23.2014 19.9098 23.2014 20.0578C23.2014 20.2058 23.143 20.3478 23.039 20.4531C22.9349 20.5583 22.7935 20.6183 22.6455 20.6199Z" fill="#83A7C5"/>
<path d="M29.3064 9.28828C29.2326 9.28828 29.1594 9.27373 29.0912 9.24546C29.023 9.21718 28.961 9.17574 28.9088 9.1235C28.8566 9.07127 28.8152 9.00925 28.787 8.94101C28.7588 8.87277 28.7443 8.79963 28.7443 8.72578V3.25927C28.7443 3.1102 28.8035 2.96723 28.909 2.86182C29.0144 2.75641 29.1573 2.69719 29.3064 2.69719C29.4555 2.69719 29.5984 2.75641 29.7039 2.86182C29.8093 2.96723 29.8685 3.1102 29.8685 3.25927V8.72621C29.8685 8.87528 29.8093 9.01824 29.7039 9.12365C29.5984 9.22906 29.4555 9.28828 29.3064 9.28828Z" fill="#FF6969"/>
<path d="M31.2413 22.1321L34.1877 23.8345L34.9568 22.5021L32.0083 20.8033L31.2413 22.1321Z" fill="#83A7C5"/>
<path d="M34.9568 22.5021L35.7078 21.2013C35.9302 20.8109 35.9891 20.3483 35.8716 19.9145C35.7542 19.4808 35.4699 19.1111 35.0809 18.8862C34.6919 18.6613 34.2297 18.5994 33.7952 18.714C33.3607 18.8286 32.9891 19.1105 32.7617 19.498L32.0081 20.8034L34.9568 22.5021Z" fill="#FF6969"/>
<path d="M27.9011 27.9181V27.9185C27.8679 27.976 27.8452 28.039 27.8339 28.1045L27.2778 31.3472C27.2583 31.4605 27.274 31.577 27.3228 31.6811C27.3716 31.7851 27.4511 31.8717 27.5507 31.9292C27.6502 31.9867 27.765 32.0122 27.8795 32.0025C27.994 31.9927 28.1028 31.9481 28.1911 31.8746L30.7204 29.7722C30.7715 29.7297 30.8146 29.6786 30.8478 29.621L27.9011 27.9181Z" fill="#F4BAA6"/>
<path d="M27.901 27.9209L31.2414 22.1352L32.1087 22.636L28.7682 28.4216L27.901 27.9209Z" fill="#FFDB06"/>
<path d="M2.44977 6.16816V10.0905H3.70428V6.13463C3.70458 5.69714 3.85607 5.27321 4.1331 4.93462C4.41014 4.59603 4.79568 4.3636 5.22444 4.27669H4.34131C3.83983 4.27726 3.35906 4.47673 3.00445 4.83132C2.64984 5.18591 2.45036 5.66668 2.44977 6.16816Z" fill="#A3C0D9"/>
<path d="M3.70428 23.8273V10.0905H2.44977V24.97C2.81255 24.5324 3.23482 24.1478 3.70428 23.8273Z" fill="#CCE6F2"/>
<path d="M26.1733 4.12819H23.5203C22.9203 4.12819 22.4321 4.58951 22.4321 5.15665V6.83079C22.4321 7.39793 22.9203 7.85925 23.5203 7.85925H26.1731L26.1733 4.12819Z" fill="#FF6969"/>
<path d="M23.9672 7.26371C23.3672 7.26371 22.879 6.80232 22.879 6.23525V4.56103C22.8794 4.47364 22.8915 4.3867 22.9151 4.30257C22.769 4.39248 22.648 4.51799 22.5636 4.66736C22.4792 4.81673 22.434 4.98508 22.4323 5.15665V6.83079C22.4323 7.39793 22.9205 7.85925 23.5205 7.85925H26.1733V7.26371H23.9672Z" fill="#F75E5E"/>
<path d="M24.4544 9.52643C24.4799 9.65377 24.5488 9.76834 24.6493 9.85065C24.7497 9.93295 24.8756 9.97792 25.0055 9.97791H25.6112C25.685 9.97796 25.7582 9.96347 25.8264 9.93524C25.8947 9.90702 25.9567 9.86563 26.0089 9.81343C26.0612 9.76123 26.1026 9.69925 26.1309 9.63103C26.1591 9.5628 26.1737 9.48968 26.1737 9.41583V7.85925H24.1197L24.4544 9.52643Z" fill="#41739F"/>
<path d="M25.1305 9.77464L24.8958 8.60576C24.8836 8.54534 24.8851 8.48299 24.8999 8.42319C24.9148 8.36339 24.9428 8.30764 24.9819 8.25997C25.0209 8.2123 25.0701 8.17389 25.1258 8.14751C25.1814 8.12114 25.2423 8.10746 25.3039 8.10746H26.1731V7.85925H24.1197L24.4543 9.52643C24.4799 9.65377 24.5487 9.76834 24.6492 9.85064C24.7496 9.93295 24.8755 9.97792 25.0054 9.97791H25.2163C25.1744 9.91654 25.1453 9.84743 25.1305 9.77464Z" fill="#376F99"/>
<path d="M28.7445 8.44122V5.8694C28.7445 7.2426 26.1736 7.2637 26.1736 7.2637V7.85924H26.2732C27.1952 7.85924 28.0068 8.05035 28.7445 8.44122Z" fill="#51C8F2"/>
<path d="M33.6222 20.0109C33.8067 19.6932 34.0889 19.4434 34.4267 19.2987C34.7645 19.1541 35.14 19.1223 35.4973 19.208C35.3173 19.0095 35.093 18.8562 34.8425 18.7607C34.5921 18.6652 34.3226 18.6301 34.0561 18.6584C33.7896 18.6866 33.5335 18.7774 33.3086 18.9233C33.0838 19.0692 32.8966 19.2662 32.7622 19.4981L32.0086 20.8035L32.8763 21.3034L33.6222 20.0109Z" fill="#F75E5E"/>
<path d="M32.876 21.3032L32.0083 20.8033L31.2413 22.1321L32.1083 22.633L32.876 21.3032Z" fill="#759FBC"/>
<path d="M27.4019 30.6218L27.2775 31.3472C27.258 31.4605 27.2738 31.577 27.3225 31.6811C27.3713 31.7851 27.4508 31.8717 27.5504 31.9292C27.6499 31.9867 27.7647 32.0122 27.8792 32.0025C27.9937 31.9927 28.1025 31.9481 28.1908 31.8746L28.7563 31.4044L27.4019 30.6218Z" fill="#83A7C5"/>
<path d="M27.4019 30.6218L28.2647 31.1203L28.6939 28.6172C28.7052 28.5517 28.7279 28.4888 28.7611 28.4313L28.7682 28.4189L27.9011 27.9179V27.9183C27.8678 27.9759 27.8451 28.0388 27.8338 28.1043L27.4021 30.6215L27.4019 30.6218Z" fill="#EFAD9C"/>
<path d="M27.4019 30.6218L27.2775 31.3472C27.2589 31.4545 27.2719 31.5648 27.3149 31.6649C27.3579 31.7649 27.429 31.8502 27.5197 31.9105C27.6103 31.9708 27.7165 32.0035 27.8254 32.0045C27.9343 32.0055 28.0411 31.9748 28.1328 31.9162C28.1336 31.8974 28.1353 31.8786 28.138 31.8599L28.2646 31.1202L27.4019 30.6218Z" fill="#759FBC"/>
<path d="M13.0741 15.3468C13.0139 15.2858 12.9422 15.2375 12.8631 15.2046C12.784 15.1716 12.6992 15.1548 12.6136 15.1549C12.5278 15.156 12.4432 15.1746 12.3648 15.2095C12.2865 15.2444 12.2161 15.295 12.158 15.3581L9.89333 17.8168L9.19597 17.096C9.13724 17.0353 9.06689 16.987 8.98911 16.954C8.91133 16.921 8.82771 16.904 8.74323 16.904H8.7355C8.64973 16.9051 8.56509 16.9237 8.48674 16.9586C8.4084 16.9935 8.33801 17.044 8.27987 17.1071L6.19968 19.3648V20.2143H14.8219V17.1526L13.0741 15.3468Z" fill="white"/>
</svg>
