<svg width="32" height="36" viewBox="0 0 32 36" fill="none" xmlns="http://www.w3.org/2000/svg">
<path d="M27.9414 6.93218C27.9166 6.75042 27.7574 6.64987 27.6261 6.6389C27.4948 6.62794 24.9322 6.58898 24.9322 6.58898C24.9322 6.58898 22.789 4.50752 22.5773 4.29567C22.3656 4.08382 21.952 4.14808 21.7915 4.19533C21.7891 4.19604 21.3893 4.31986 20.7145 4.52876C20.6019 4.16299 20.4359 3.71376 20.1992 3.26236C19.436 1.80661 18.3188 1.03605 16.9685 1.03408C16.9669 1.03408 16.9655 1.03408 16.9639 1.03408C16.8703 1.03408 16.777 1.04287 16.6836 1.05138C16.644 1.00357 16.6038 0.956178 16.5616 0.910967C15.9737 0.281741 15.2187 -0.0248219 14.3152 0.0016859C12.5708 0.0516781 10.8346 1.31119 9.42633 3.54797C8.435 5.12226 7.68188 7.09994 7.46771 8.63058C5.46535 9.25066 4.06437 9.68456 4.03407 9.69405C3.02333 10.0112 2.99155 10.043 2.85901 10.9953C2.75867 11.7162 0.114288 32.1671 0.114288 32.1671L22.2792 36L31.8856 33.6123C31.8856 33.6123 27.9663 7.11394 27.9414 6.93218ZM8.70943 8.24597C9.30877 5.44359 11.6569 1.2394 14.3487 1.16198C14.7582 1.1534 15.1031 1.24326 15.3976 1.43712C14.9265 1.68173 14.4708 2.0333 14.0434 2.49173C12.9356 3.68015 12.087 5.52544 11.7485 7.30483C10.6925 7.63186 9.65963 7.95171 8.70943 8.24597ZM16.7246 5.76408C15.5635 6.12358 14.2958 6.51614 13.0242 6.90989C13.3822 5.54034 14.0599 4.17677 14.8926 3.28345C15.2024 2.95115 15.6358 2.58033 16.149 2.36862C16.6317 3.37458 16.7363 4.80065 16.7246 5.76408ZM17.8841 5.40506C17.8712 4.52187 17.7657 3.29344 17.3543 2.23151C18.6777 2.48224 19.3293 3.97962 19.6043 4.87244C19.0943 5.0303 18.5134 5.21015 17.8841 5.40506Z" fill="#95BF47"/>
<path d="M27.6261 6.6389C27.4948 6.62794 24.9322 6.58898 24.9322 6.58898C24.9322 6.58898 22.789 4.50752 22.5773 4.29567C22.4984 4.21664 22.3913 4.17621 22.2798 4.15877L22.2803 35.9998L31.8856 33.6123C31.8856 33.6123 27.9663 7.11394 27.9415 6.93218C27.9166 6.75042 27.7574 6.64987 27.6261 6.6389Z" fill="#5E8E3E"/>
<path d="M16.9557 11.5782L15.8399 15.752C15.8399 15.752 14.5954 15.1853 13.1199 15.2785C10.9564 15.4151 10.9334 16.7798 10.955 17.1218C11.0728 18.9885 15.9836 19.3964 16.2597 23.7686C16.4769 27.2084 14.4351 29.5613 11.4932 29.7471C7.96285 29.97 6.01892 27.8868 6.01892 27.8868L6.76698 24.7042C6.76698 24.7042 8.72328 26.1802 10.2893 26.0813C11.3122 26.0167 11.6777 25.1847 11.6405 24.5964C11.4868 22.1613 7.48796 22.3047 7.23533 18.3037C7.0227 14.9363 9.23389 11.525 14.113 11.2169C15.993 11.0983 16.9557 11.5782 16.9557 11.5782Z" fill="white"/>
</svg>
