<svg width="64" height="63" viewBox="0 0 64 63" fill="none" xmlns="http://www.w3.org/2000/svg">
<rect x="0.5" width="63" height="63" rx="5" fill="white"/>
<path d="M43.4482 24.0898V34.9571C43.4482 35.2004 43.425 35.4381 43.3807 35.6687C42.7675 35.784 42.2086 36.0512 41.7431 36.4295C41.2741 36.8106 40.9001 37.3042 40.6631 37.8695C40.5597 38.1156 40.4824 38.3757 40.4346 38.6457C40.1962 38.6935 39.9501 38.7188 39.6977 38.7188H26.3399L23.1077 42.5227C23.0078 42.6408 22.8616 42.709 22.7069 42.709C22.5522 42.709 22.4052 42.6408 22.3047 42.5227L19.0725 38.7188H18.2512C16.1827 38.7188 14.5001 37.0313 14.5001 34.9571V24.0898C14.5001 22.0156 16.1827 20.3281 18.2512 20.3281H39.6977C41.7656 20.3281 43.4482 22.0156 43.4482 24.0898Z" fill="#9090FB"/>
<path d="M38.2922 38.7187C39.1908 38.7187 40.0163 38.4002 40.6631 37.8693C40.5598 38.1154 40.4824 38.3756 40.4346 38.6456C40.1963 38.6934 39.9502 38.7187 39.6977 38.7187H38.2922Z" fill="#6C5FEA"/>
<path d="M43.4482 24.0897V34.9572C43.4482 35.2004 43.425 35.4381 43.3807 35.6687C42.7675 35.784 42.2086 36.0512 41.7431 36.4295C41.9357 35.9774 42.0426 35.4796 42.0426 34.9572V24.0897C42.0426 22.0155 40.3601 20.328 38.2922 20.328H39.6977C41.7656 20.328 43.4482 22.0155 43.4482 24.0897Z" fill="#6C5FEA"/>
<path d="M32.3321 47.7258C32.3321 48.9794 31.314 49.9996 30.0626 49.9996H16.7696C15.5182 49.9996 14.5001 48.9794 14.5001 47.7258C14.5001 46.4721 15.5182 45.4526 16.7696 45.4526H16.967L18.153 43.8143C18.2521 43.6772 18.4108 43.5956 18.5795 43.5956C18.7488 43.5956 18.9077 43.6772 19.0067 43.8143L20.1928 45.4526H30.0625C31.314 45.4526 32.3321 46.4721 32.3321 47.7258Z" fill="#FF6B81"/>
<path d="M50.4998 16.2739C50.4998 17.5276 49.4817 18.5471 48.2303 18.5471H46.8251L45.6391 20.1854C45.54 20.3225 45.3812 20.404 45.2125 20.404C45.0432 20.404 44.8844 20.3225 44.7853 20.1854L43.6 18.5471H34.9374C33.686 18.5471 32.6679 17.5276 32.6679 16.2739C32.6679 15.0202 33.686 14 34.9374 14H48.2303C49.4817 14 50.4998 15.0202 50.4998 16.2739Z" fill="#FBDF63"/>
<path d="M50.4998 16.2739C50.4998 17.5276 49.4816 18.5471 48.2303 18.5471H46.825C48.0764 18.5471 49.0945 17.5276 49.0945 16.2739C49.0945 15.0202 48.0764 14 46.825 14H48.2303C49.4816 14 50.4998 15.0202 50.4998 16.2739Z" fill="#FFA402"/>
<path d="M32.332 47.7258C32.332 48.9795 31.3139 49.9997 30.0626 49.9997H28.6573C29.9087 49.9997 30.9268 48.9795 30.9268 47.7258C30.9268 46.4722 29.9087 45.4527 28.6573 45.4527H30.0626C31.3139 45.4527 32.332 46.4722 32.332 47.7258Z" fill="#ED2061"/>
<path d="M25.0366 27.2499C25.3279 27.2499 25.564 27.0139 25.564 26.7226C25.564 26.4313 25.3279 26.1953 25.0366 26.1953H22.2242C21.933 26.1953 21.6969 26.4313 21.6969 26.7226V29.5351C21.6969 29.8264 21.933 30.0624 22.2242 30.0624H24.5093V31.8202H22.2242C21.933 31.8202 21.6969 32.0563 21.6969 32.3476C21.6969 32.6389 21.933 32.8749 22.2242 32.8749H25.0366C25.3279 32.8749 25.564 32.6389 25.564 32.3476V29.5351C25.564 29.2438 25.3279 29.0077 25.0366 29.0077H22.7515V27.2499H25.0366Z" fill="white"/>
<path d="M30.31 27.2499C30.6012 27.2499 30.8373 27.0138 30.8373 26.7225C30.8373 26.4312 30.6012 26.1952 30.31 26.1952H27.4976C27.2063 26.1952 26.9702 26.4312 26.9702 26.7225V32.3475C26.9702 32.6388 27.2063 32.8748 27.4976 32.8748H30.31C30.6012 32.8748 30.8373 32.6388 30.8373 32.3475C30.8373 32.0562 30.6012 31.8202 30.31 31.8202H28.0249V30.0624H30.31C30.6012 30.0624 30.8373 29.8263 30.8373 29.535C30.8373 29.2437 30.6012 29.0077 30.31 29.0077H28.0249V27.2499H30.31Z" fill="white"/>
<path d="M35.5832 26.1952H32.7708C32.4796 26.1952 32.2435 26.4312 32.2435 26.7225V32.3475C32.2435 32.6388 32.4796 32.8748 32.7708 32.8748H35.5832C35.8744 32.8748 36.1105 32.6388 36.1105 32.3475V26.7225C36.1105 26.4312 35.8744 26.1952 35.5832 26.1952ZM35.0559 31.8202H33.2981V27.2499H35.0559V31.8202Z" fill="white"/>
<path d="M50.4992 38.2399C50.4992 37.9812 50.3101 37.7604 50.0542 37.7196L49.3264 37.6043L48.9798 36.7663L49.4122 36.1693C49.5641 35.9591 49.5416 35.6701 49.3581 35.4867L47.8689 33.9975C47.6853 33.814 47.3957 33.7915 47.1854 33.9441L46.5899 34.3772L45.7525 34.0306L45.6365 33.3022C45.5957 33.0463 45.3749 32.8578 45.1161 32.8578H44.2211L43.0103 32.8585C42.7508 32.8592 42.5301 33.0477 42.4893 33.3036L42.374 34.032L41.5373 34.3793L40.941 33.9462C40.7308 33.7943 40.4418 33.8168 40.2583 34.0003L38.7698 35.4909C38.5863 35.6744 38.5638 35.9634 38.7163 36.1735L39.1488 36.7698L38.8021 37.6085L38.0751 37.7238C37.8192 37.7646 37.6307 37.9854 37.6307 38.2449L37.6314 40.352C37.6314 40.6107 37.8206 40.8315 38.0765 40.8723L38.8042 40.9876L39.1509 41.8256L38.7184 42.4225C38.5666 42.6328 38.5891 42.9217 38.7726 43.1052L40.2618 44.5943C40.4453 44.7778 40.735 44.8003 40.9445 44.6478L41.5401 44.2146L42.3782 44.562L42.4942 45.2896C42.535 45.5456 42.7558 45.734 43.0145 45.734H43.0152L44.0692 45.7333H45.1204C45.3798 45.7326 45.6006 45.5442 45.6414 45.2882L45.7567 44.5599L46.5934 44.2125L47.1896 44.6457C47.3999 44.7975 47.6896 44.775 47.8724 44.5915L49.3609 43.101C49.5444 42.9175 49.5669 42.6285 49.4143 42.4183L48.9819 41.8221L49.3285 40.9841L50.0556 40.8681C50.3115 40.8273 50.4999 40.6065 50.4999 40.3471L50.4992 38.2399ZM44.065 42.1083C42.5118 42.1083 41.2525 40.8491 41.2525 39.296C41.2525 37.7428 42.5118 36.4836 44.065 36.4836C45.6189 36.4836 46.8775 37.7428 46.8775 39.296C46.8775 40.8491 45.6189 42.1083 44.065 42.1083Z" fill="#56788B"/>
<path d="M50.4999 40.3469C50.4999 40.6064 50.3115 40.8271 50.0555 40.8679L49.3285 40.9839L48.9819 41.822L49.4143 42.4182C49.5669 42.6285 49.5444 42.9174 49.3608 43.1009L47.8723 44.5914C47.6895 44.7749 47.3998 44.7974 47.1896 44.6456L46.5934 44.2125L45.7566 44.5598L45.6413 45.2882C45.6006 45.5441 45.3798 45.7325 45.1203 45.7332H44.0692L44.5346 43.5446L46.7818 42.6116L47.4083 43.0665L47.8358 42.6376L47.3816 42.0118L48.3294 39.7191L49.0937 39.5975L49.093 38.9907L48.3287 38.8698L47.3794 36.5778L47.8337 35.9513L47.4055 35.5231L46.7797 35.9773L44.4376 35.0078L44.221 32.8578H45.1161C45.3748 32.8578 45.5956 33.0462 45.6364 33.3021L45.7524 34.0305L46.5898 34.3771L47.1854 33.944C47.3956 33.7914 47.6853 33.8139 47.8688 33.9974L49.358 35.4866C49.5415 35.6701 49.564 35.9591 49.4122 36.1692L48.9797 36.7662L49.3264 37.6042L50.0541 37.7196C50.3101 37.7603 50.4992 37.9811 50.4992 38.2399L50.4999 40.3469Z" fill="#415E6F"/>
</svg>
