<svg width="37" height="36" viewBox="0 0 37 36" fill="none" xmlns="http://www.w3.org/2000/svg">
<path d="M32.96 23.25H28.25C28.0511 23.25 27.8603 23.329 27.7197 23.4697C27.579 23.6103 27.5 23.8011 27.5 24C27.5 24.1989 27.579 24.3897 27.7197 24.5303C27.8603 24.671 28.0511 24.75 28.25 24.75H32.96C33.1251 25.036 33.3799 25.2595 33.685 25.3858C33.9901 25.5122 34.3283 25.5344 34.6473 25.4489C34.9662 25.3634 35.2481 25.1751 35.4491 24.9131C35.6501 24.6512 35.759 24.3302 35.759 24C35.759 23.6698 35.6501 23.3488 35.4491 23.0869C35.2481 22.8249 34.9662 22.6366 34.6473 22.5511C34.3283 22.4656 33.9901 22.4878 33.685 22.6142C33.3799 22.7405 33.1251 22.964 32.96 23.25Z" fill="url(#paint0_linear_30_93)"/>
<path d="M32.75 30.96V27.75C32.75 27.5511 32.671 27.3603 32.5303 27.2197C32.3897 27.079 32.1989 27 32 27H27.5C27.3011 27 27.1103 27.079 26.9697 27.2197C26.829 27.3603 26.75 27.5511 26.75 27.75C26.75 27.9489 26.829 28.1397 26.9697 28.2803C27.1103 28.421 27.3011 28.5 27.5 28.5H31.25V30.96C30.964 31.1251 30.7405 31.3799 30.6142 31.685C30.4878 31.9901 30.4656 32.3283 30.5511 32.6473C30.6366 32.9662 30.8249 33.2481 31.0869 33.4491C31.3488 33.6501 31.6698 33.759 32 33.759C32.3302 33.759 32.6512 33.6501 32.9131 33.4491C33.1751 33.2481 33.3634 32.9662 33.4489 32.6473C33.5344 32.3283 33.5122 31.9901 33.3858 31.685C33.2595 31.3799 33.036 31.1251 32.75 30.96Z" fill="url(#paint1_linear_30_93)"/>
<path d="M14.75 7.5H12.29C12.1249 7.21404 11.8701 6.99054 11.565 6.86418C11.2599 6.73782 10.9217 6.71565 10.6027 6.80111C10.2838 6.88657 10.002 7.07489 9.80094 7.33686C9.59992 7.59882 9.49097 7.9198 9.49097 8.25C9.49097 8.5802 9.59992 8.90118 9.80094 9.16314C10.002 9.42511 10.2838 9.61343 10.6027 9.69889C10.9217 9.78435 11.2599 9.76218 11.565 9.63582C11.8701 9.50946 12.1249 9.28596 12.29 9H14V12.75C14 12.9489 14.079 13.1397 14.2197 13.2803C14.3603 13.421 14.5511 13.5 14.75 13.5C14.9489 13.5 15.1397 13.421 15.2803 13.2803C15.421 13.1397 15.5 12.9489 15.5 12.75V8.25C15.5 8.05109 15.421 7.86032 15.2803 7.71967C15.1397 7.57902 14.9489 7.5 14.75 7.5Z" fill="url(#paint2_linear_30_93)"/>
<path d="M35.75 12.75V9.75C35.75 9.55109 35.671 9.36032 35.5303 9.21967C35.3897 9.07902 35.1989 9 35 9H34.43C34.2828 8.99988 34.1389 8.95644 34.0162 8.87508C33.8935 8.79373 33.7974 8.67806 33.74 8.5425C33.74 8.4375 33.6575 8.3325 33.6125 8.2275C33.5551 8.09092 33.5394 7.94038 33.5674 7.79489C33.5954 7.6494 33.6659 7.51547 33.77 7.41L34.175 7.005C34.3147 6.86448 34.3931 6.67439 34.3931 6.47625C34.3931 6.27811 34.3147 6.08802 34.175 5.9475L32.0525 3.825C31.912 3.68531 31.7219 3.60691 31.5238 3.60691C31.3256 3.60691 31.1355 3.68531 30.995 3.825L30.59 4.23C30.4827 4.33866 30.3447 4.41196 30.1946 4.4401C30.0445 4.46825 29.8894 4.4499 29.75 4.3875L29.435 4.26C29.3036 4.19922 29.1927 4.10174 29.1155 3.97931C29.0383 3.85687 28.9982 3.71472 29 3.57V3C29 2.80109 28.921 2.61032 28.7803 2.46967C28.6397 2.32902 28.4489 2.25 28.25 2.25H25.25C25.0511 2.25 24.8603 2.32902 24.7197 2.46967C24.579 2.61032 24.5 2.80109 24.5 3V3.57C24.4999 3.71722 24.4564 3.86115 24.3751 3.98384C24.2937 4.10654 24.1781 4.20258 24.0425 4.26L23.75 4.3875C23.6134 4.44493 23.4629 4.46063 23.3174 4.4326C23.1719 4.40457 23.038 4.33407 22.9325 4.23L22.5275 3.825C22.387 3.68531 22.1969 3.60691 21.9988 3.60691C21.8006 3.60691 21.6105 3.68531 21.47 3.825L19.325 5.9475C19.1853 6.08802 19.1069 6.27811 19.1069 6.47625C19.1069 6.67439 19.1853 6.86448 19.325 7.005L19.73 7.41C19.8387 7.51732 19.912 7.65526 19.9401 7.80537C19.9682 7.95548 19.9499 8.1106 19.8875 8.25C19.8425 8.355 19.7975 8.46 19.76 8.565C19.7026 8.70056 19.6065 8.81623 19.4838 8.89758C19.3611 8.97894 19.2172 9.02238 19.07 9.0225H18.5C18.3011 9.0225 18.1103 9.10152 17.9697 9.24217C17.829 9.38282 17.75 9.57359 17.75 9.7725V12.7725C17.75 12.9714 17.829 13.1622 17.9697 13.3028C18.1103 13.4435 18.3011 13.5225 18.5 13.5225H19.07C19.2172 13.5226 19.3611 13.5661 19.4838 13.6474C19.6065 13.7288 19.7026 13.8444 19.76 13.98C19.7975 14.085 19.8425 14.19 19.8875 14.295C19.9449 14.4316 19.9606 14.5821 19.9326 14.7276C19.9046 14.8731 19.8341 15.007 19.73 15.1125L19.325 15.5175C19.1853 15.658 19.1069 15.8481 19.1069 16.0463C19.1069 16.2444 19.1853 16.4345 19.325 16.575L21.4475 18.6975C21.588 18.8372 21.7781 18.9156 21.9763 18.9156C22.1744 18.9156 22.3645 18.8372 22.505 18.6975L22.91 18.2925C23.0147 18.1801 23.1514 18.1025 23.3017 18.0703C23.4519 18.0381 23.6084 18.0528 23.75 18.1125L24.065 18.24C24.2006 18.2974 24.3162 18.3935 24.3976 18.5162C24.4789 18.6389 24.5224 18.7828 24.5225 18.93V19.5C24.5225 19.6989 24.6015 19.8897 24.7422 20.0303C24.8828 20.171 25.0736 20.25 25.2725 20.25H28.2725C28.4714 20.25 28.6622 20.171 28.8028 20.0303C28.9435 19.8897 29.0225 19.6989 29.0225 19.5V18.93C29.0226 18.7828 29.0661 18.6389 29.1474 18.5162C29.2288 18.3935 29.3444 18.2974 29.48 18.24L29.795 18.1125C29.9316 18.0551 30.0821 18.0394 30.2276 18.0674C30.3731 18.0954 30.507 18.1659 30.6125 18.27L31.0175 18.675C31.158 18.8147 31.3481 18.8931 31.5463 18.8931C31.7444 18.8931 31.9345 18.8147 32.075 18.675L34.1975 16.5525C34.3372 16.412 34.4156 16.2219 34.4156 16.0237C34.4156 15.8256 34.3372 15.6355 34.1975 15.495L33.7925 15.09C33.6801 14.9853 33.6025 14.8486 33.5703 14.6983C33.5381 14.5481 33.5529 14.3916 33.6125 14.25C33.6575 14.145 33.7025 14.04 33.74 13.935C33.7974 13.7994 33.8935 13.6838 34.0162 13.6024C34.1389 13.5211 34.2828 13.4776 34.43 13.4775H35C35.1951 13.4776 35.3825 13.4017 35.5225 13.2658C35.6626 13.13 35.7441 12.945 35.75 12.75Z" fill="url(#paint3_linear_30_93)"/>
<path d="M26.75 15C28.8211 15 30.5 13.3211 30.5 11.25C30.5 9.17893 28.8211 7.5 26.75 7.5C24.6789 7.5 23 9.17893 23 11.25C23 13.3211 24.6789 15 26.75 15Z" fill="#4795EA"/>
<path d="M29.75 24C29.75 25.7902 29.0389 27.5071 27.773 28.773C26.5071 30.0388 24.7902 30.75 23 30.75H8.00003C6.20981 30.8087 4.46962 30.1538 3.16225 28.9294C1.85489 27.705 1.08745 26.0115 1.02878 24.2213C0.970096 22.431 1.62498 20.6908 2.84936 19.3835C4.07374 18.0761 5.76731 17.3087 7.55753 17.25C8.04412 15.518 9.08352 13.9926 10.5174 12.906C11.9513 11.8195 13.701 11.2314 15.5 11.2314C17.2991 11.2314 19.0488 11.8195 20.4827 12.906C21.9165 13.9926 22.9559 15.518 23.4425 17.25C25.155 17.3625 26.7602 18.123 27.9319 19.3769C29.1036 20.6308 29.7537 22.2839 29.75 24Z" fill="url(#paint4_linear_30_93)"/>
<path d="M17 20.25H15.5C15.3011 20.25 15.1103 20.329 14.9697 20.4697C14.829 20.6103 14.75 20.8011 14.75 21V25.5C14.75 25.6989 14.829 25.8897 14.9697 26.0303C15.1103 26.171 15.3011 26.25 15.5 26.25C15.6989 26.25 15.8897 26.171 16.0303 26.0303C16.171 25.8897 16.25 25.6989 16.25 25.5V24.75H17C17.5967 24.75 18.169 24.5129 18.591 24.091C19.0129 23.669 19.25 23.0967 19.25 22.5C19.25 21.9033 19.0129 21.331 18.591 20.909C18.169 20.4871 17.5967 20.25 17 20.25ZM17 23.25H16.25V21.75H17C17.1989 21.75 17.3897 21.829 17.5303 21.9697C17.671 22.1103 17.75 22.3011 17.75 22.5C17.75 22.6989 17.671 22.8897 17.5303 23.0303C17.3897 23.171 17.1989 23.25 17 23.25Z" fill="#B4CDE1"/>
<path d="M11 20.25C10.4033 20.25 9.83097 20.4871 9.40901 20.909C8.98705 21.331 8.75 21.9033 8.75 22.5V25.5C8.75 25.6989 8.82902 25.8897 8.96967 26.0303C9.11032 26.171 9.30109 26.25 9.5 26.25C9.69891 26.25 9.88968 26.171 10.0303 26.0303C10.171 25.8897 10.25 25.6989 10.25 25.5V24.75H11.75V25.5C11.75 25.6989 11.829 25.8897 11.9697 26.0303C12.1103 26.171 12.3011 26.25 12.5 26.25C12.6989 26.25 12.8897 26.171 13.0303 26.0303C13.171 25.8897 13.25 25.6989 13.25 25.5V22.5C13.25 21.9033 13.0129 21.331 12.591 20.909C12.169 20.4871 11.5967 20.25 11 20.25ZM10.25 23.25V22.5C10.25 22.3011 10.329 22.1103 10.4697 21.9697C10.6103 21.829 10.8011 21.75 11 21.75C11.1989 21.75 11.3897 21.829 11.5303 21.9697C11.671 22.1103 11.75 22.3011 11.75 22.5V23.25H10.25Z" fill="#B4CDE1"/>
<path d="M21.5 26.25C21.3011 26.25 21.1103 26.171 20.9697 26.0303C20.829 25.8897 20.75 25.6989 20.75 25.5V21C20.75 20.8011 20.829 20.6103 20.9697 20.4697C21.1103 20.329 21.3011 20.25 21.5 20.25C21.6989 20.25 21.8897 20.329 22.0303 20.4697C22.171 20.6103 22.25 20.8011 22.25 21V25.5C22.25 25.6989 22.171 25.8897 22.0303 26.0303C21.8897 26.171 21.6989 26.25 21.5 26.25Z" fill="#B4CDE1"/>
<defs>
<linearGradient id="paint0_linear_30_93" x1="27.5" y1="24" x2="35.75" y2="24" gradientUnits="userSpaceOnUse">
<stop stop-color="#FE9661"/>
<stop offset="1" stop-color="#FFB369"/>
</linearGradient>
<linearGradient id="paint1_linear_30_93" x1="26.75" y1="30.375" x2="33.5" y2="30.375" gradientUnits="userSpaceOnUse">
<stop stop-color="#FE9661"/>
<stop offset="1" stop-color="#FFB369"/>
</linearGradient>
<linearGradient id="paint2_linear_30_93" x1="12.5" y1="13.5" x2="12.5" y2="6.75" gradientUnits="userSpaceOnUse">
<stop stop-color="#FE9661"/>
<stop offset="1" stop-color="#FFB369"/>
</linearGradient>
<linearGradient id="paint3_linear_30_93" x1="20.3825" y1="17.6175" x2="33.1175" y2="4.8825" gradientUnits="userSpaceOnUse">
<stop stop-color="#54A5FF"/>
<stop offset="1" stop-color="#8AD3FE"/>
</linearGradient>
<linearGradient id="paint4_linear_30_93" x1="1.25003" y1="21" x2="29.75" y2="21" gradientUnits="userSpaceOnUse">
<stop stop-color="#D3E6F5"/>
<stop offset="1" stop-color="#F0F7FC"/>
</linearGradient>
</defs>
</svg>
